<svg width="488" height="447" viewBox="0 0 488 447" fill="none" xmlns="http://www.w3.org/2000/svg">
<g clip-path="url(#clip0_677_13660)">
<path d="M0.00231934 75.4337C0.00231934 54.1194 16.3394 36.3628 37.58 34.5911L406.576 3.81215C430.472 1.81895 450.968 20.676 450.968 44.6548V370.816C450.968 392.13 434.63 409.887 413.39 411.658L44.3936 442.438C20.4978 444.431 0.00231934 425.574 0.00231934 401.595V75.4337Z" fill="#1F9C7E"/>
<path d="M0.00170898 76.2375C0.00170898 54.9603 16.2905 37.2231 37.495 35.4107L442.609 1.58697C466.535 -0.458091 487.085 18.4064 487.085 42.4138V368.578C487.085 389.856 470.796 407.592 449.592 409.405L44.4775 443.229C20.5522 445.274 0.00170898 426.41 0.00170898 402.402V76.2375Z" fill="#1F9C7E"/>
<path d="M145.519 229.163C143.233 229.163 141.379 231.018 141.379 233.306V318.228C141.379 367.989 181.69 408.329 231.414 408.329C281.139 408.329 321.449 367.989 321.449 318.228V233.306C321.449 231.018 319.596 229.163 317.31 229.163H278.131C252.33 229.163 231.414 249.974 231.414 275.645C231.414 249.974 210.499 229.163 184.698 229.163H145.519Z" fill="#A9DF90"/>
<path d="M109.382 228.164C109.382 229.823 108.033 231.166 106.374 231.158L0.00195312 230.679L0.0019635 112.136C60.4905 112.409 109.382 161.522 109.382 222.011V228.164Z" fill="#0A6C55"/>
<path d="M378.51 228.172C378.51 228.72 378.065 229.163 377.517 229.163H322.442C321.894 229.163 321.45 228.72 321.45 228.172V205.128C321.45 189.372 334.223 176.599 349.979 176.599C365.737 176.599 378.51 189.372 378.51 205.128V228.172Z" fill="#A9DF90"/>
<path d="M231.31 228.641C280.89 228.641 321.083 188.485 321.083 138.95C321.083 89.4146 280.89 49.2584 231.31 49.2584C181.729 49.2584 141.536 89.4146 141.536 138.95C141.536 188.485 181.729 228.641 231.31 228.641Z" fill="#47B88F"/>
<g filter="url(#filter0_dd_677_13660)">
<path d="M231.2 113.543H231.154C217.196 113.543 205.88 124.859 205.88 138.817V138.818C205.88 152.776 217.196 164.092 231.154 164.092H231.2C245.159 164.092 256.475 152.776 256.475 138.818V138.817C256.475 124.859 245.159 113.543 231.2 113.543Z" fill="white"/>
<path d="M221.859 147.932C221.623 147.932 221.397 147.828 221.252 147.644C219.437 145.355 218.744 142.419 218.744 139.217C218.744 135.753 220.257 132.6 222.371 130.24C222.578 130.008 222.911 129.928 223.201 130.044C228.009 131.942 230.867 136.738 231.463 139.779C232.06 136.738 234.919 131.942 239.725 130.044C240.017 129.928 240.348 130.008 240.555 130.24C242.67 132.6 244.183 135.753 244.183 139.217C244.183 142.419 243.49 145.355 241.675 147.644C241.529 147.828 241.303 147.932 241.067 147.932H237.567C237.288 147.932 237.026 147.786 236.891 147.544C236.432 146.164 236.233 144.789 236.233 143.612C235.029 144.886 233.252 146.361 231.645 147.051C231.531 147.111 231.395 147.111 231.281 147.051C229.674 146.361 227.898 144.886 226.693 143.612C226.693 144.789 226.494 146.164 226.036 147.544C225.901 147.786 225.64 147.932 225.359 147.932H221.859Z" fill="#47B88F"/>
</g>
<path fill-rule="evenodd" clip-rule="evenodd" d="M297.33 101.137C314.31 136.969 298.722 179.63 262.507 196.433C240.446 206.667 215.847 204.888 196.136 193.874C195.756 193.662 195.622 193.186 195.836 192.81C196.05 192.434 196.532 192.302 196.911 192.514C216.2 203.291 240.26 205.028 261.836 195.018C297.262 178.582 312.51 136.852 295.9 101.8C294.102 98.0061 291.95 94.4897 289.585 91.1734C289.333 90.821 289.418 90.3337 289.776 90.0852C290.132 89.8365 290.623 89.9207 290.875 90.2731C293.282 93.6492 295.484 97.2448 297.33 101.137Z" fill="url(#paint0_linear_677_13660)"/>
<path d="M205.344 190.843C200.066 191.97 194.867 188.588 193.734 183.289C194.867 188.588 191.507 193.797 186.228 194.924C191.476 193.804 196.646 197.141 197.819 202.388H197.82C196.743 197.12 200.096 191.964 205.344 190.843Z" fill="#A9DF90"/>
<path fill-rule="evenodd" clip-rule="evenodd" d="M175.575 115.158C175.932 114.935 176.402 115.047 176.623 115.406L180.232 121.266C180.453 121.625 180.342 122.098 179.985 122.321C179.626 122.543 179.158 122.432 178.936 122.073L176.32 117.824C174.581 126.634 175.085 135.753 177.798 144.332C180.7 153.509 186.023 161.724 193.199 168.102C200.376 174.482 209.14 178.787 218.557 180.559C227.974 182.331 237.692 181.505 246.68 178.168L247.207 179.605C237.962 183.037 227.963 183.887 218.276 182.064C208.588 180.241 199.573 175.812 192.191 169.25C184.807 162.688 179.331 154.237 176.346 144.796C173.543 135.933 173.032 126.509 174.848 117.411L170.546 120.087C170.189 120.31 169.719 120.199 169.497 119.839C169.277 119.479 169.387 119.007 169.744 118.785L175.575 115.158Z" fill="url(#paint1_linear_677_13660)"/>
<path d="M364.5 95.3224C372.765 95.3224 379.465 102.048 379.465 110.344C379.465 102.048 386.164 95.3224 394.429 95.3224C386.212 95.3224 379.542 88.6737 379.465 80.443H379.464C379.388 88.6737 372.718 95.3224 364.5 95.3224Z" fill="#A9DF90"/>
<path d="M131.893 54.6217C136.86 54.6217 140.885 58.6668 140.885 63.6568C140.885 58.6668 144.912 54.6217 149.878 54.6217C144.94 54.6217 140.932 50.6224 140.886 45.6717H140.885C140.84 50.6224 136.831 54.6217 131.893 54.6217Z" fill="#A9DF90"/>
<path d="M53.9576 380.064C69.1881 380.064 81.5348 392.469 81.5348 407.772C81.5348 392.469 93.8815 380.064 109.112 380.064C93.9683 380.064 81.6757 367.8 81.536 352.618H81.5336C81.394 367.8 69.1012 380.064 53.9576 380.064Z" fill="#A9DF90"/>
<path opacity="0.16" d="M487.085 303.268C471.902 292.412 453.297 286.021 433.196 286.021C382.028 286.021 340.547 327.433 340.547 378.514C340.547 392.684 343.738 406.109 349.443 418.113L351.07 417.973C345.306 406.037 342.074 392.653 342.074 378.514C342.074 328.276 382.87 287.548 433.196 287.548C453.359 287.548 471.993 294.085 487.085 305.152V303.268Z" fill="#A3E1C9"/>
<path d="M486.844 334.151L487.086 368.065C487.086 389.748 470.475 407.823 448.851 409.669L374.17 416.049C367.257 405.218 363.251 392.358 363.251 378.563C363.251 339.992 394.569 308.725 433.202 308.725C454.879 308.725 474.013 318.696 486.844 334.151Z" fill="#0A6C55"/>
<path d="M487.085 55.9484C483.235 55.2361 479.263 54.8636 475.206 54.8636C439.592 54.8636 410.72 83.5507 410.72 118.938V206.468C410.72 241.856 439.592 270.542 475.206 270.542C479.263 270.542 483.235 270.171 487.085 269.457V55.9484Z" fill="#47B88F"/>
</g>
<defs>
<filter id="filter0_dd_677_13660" x="197.645" y="109.8" width="91.021" height="97.7124" filterUnits="userSpaceOnUse" color-interpolation-filters="sRGB">
<feFlood flood-opacity="0" result="BackgroundImageFix"/>
<feColorMatrix in="SourceAlpha" type="matrix" values="0 0 0 0 0 0 0 0 0 0 0 0 0 0 0 0 0 0 127 0" result="hardAlpha"/>
<feOffset dx="2.99452" dy="5.24042"/>
<feGaussianBlur stdDeviation="4.49179"/>
<feColorMatrix type="matrix" values="0 0 0 0 0.372986 0 0 0 0 0.545833 0 0 0 0 0.48395 0 0 0 0.06 0"/>
<feBlend mode="normal" in2="BackgroundImageFix" result="effect1_dropShadow_677_13660"/>
<feColorMatrix in="SourceAlpha" type="matrix" values="0 0 0 0 0 0 0 0 0 0 0 0 0 0 0 0 0 0 127 0" result="hardAlpha"/>
<feOffset dx="11.9781" dy="23.2075"/>
<feGaussianBlur stdDeviation="10.1065"/>
<feColorMatrix type="matrix" values="0 0 0 0 0.426562 0 0 0 0 0.5625 0 0 0 0 0.513831 0 0 0 0.04 0"/>
<feBlend mode="normal" in2="effect1_dropShadow_677_13660" result="effect2_dropShadow_677_13660"/>
<feBlend mode="normal" in="SourceGraphic" in2="effect2_dropShadow_677_13660" result="shape"/>
</filter>
<linearGradient id="paint0_linear_677_13660" x1="238.781" y1="208.412" x2="292.935" y2="99.233" gradientUnits="userSpaceOnUse">
<stop stop-color="#A5D084"/>
<stop offset="1" stop-color="#A5D084" stop-opacity="0"/>
</linearGradient>
<linearGradient id="paint1_linear_677_13660" x1="210.744" y1="115.809" x2="210.744" y2="182.235" gradientUnits="userSpaceOnUse">
<stop stop-color="#A5D084"/>
<stop offset="1" stop-color="#A5D084" stop-opacity="0"/>
</linearGradient>
<clipPath id="clip0_677_13660">
<rect width="487.997" height="446.031" fill="white" transform="translate(0.00170898 0.109375)"/>
</clipPath>
</defs>
</svg>
