<svg width="106" height="40" viewBox="0 0 106 40" fill="none" xmlns="http://www.w3.org/2000/svg">
<path d="M9.70105 11.6057L9.82222 11.6211L9.92178 11.6349C12.5404 12.0083 14.7189 13.3314 16.4579 15.6049C18.1968 17.8781 18.858 20.3421 18.4411 22.9962C17.9918 23.9211 16.6331 24.8911 14.3645 25.9054L14.3429 25.9153L12.7408 20.9771L12.7765 20.9119C12.8089 20.8516 12.8404 20.7899 12.8712 20.7273C13.069 20.4408 13.1901 20.1434 13.2337 19.835C13.349 19.0255 13.0185 18.3099 12.2427 17.688C12.0416 17.5267 11.8317 17.3815 11.6126 17.252C11.5799 17.2326 11.5471 17.2136 11.514 17.1949L9.70105 11.6057Z" fill="#F9AB3C"/>
<path d="M0.238842 19.6332C0.573211 17.0069 1.65459 14.9291 3.48297 13.4004C5.25667 11.9173 7.32903 11.3194 9.70105 11.6052L11.514 17.1944C10.9141 16.8568 10.2493 16.6361 9.51929 16.5322C8.74903 16.4224 8.07277 16.4834 7.48983 16.7148C6.29088 17.1338 5.55992 18.2684 5.29662 20.1184C5.00613 22.1614 5.27861 23.2816 6.11469 23.4796C9.42825 23.8009 11.6365 22.9663 12.7405 20.9763L14.3426 25.9145C14.0921 26.0262 13.8307 26.1387 13.5579 26.2515C10.1317 27.69 8.22079 28.5578 7.82485 28.8554C7.12631 29.0705 6.75232 29.3514 6.70287 29.6983C6.6151 30.3149 6.9606 30.9247 7.73938 31.5273C8.51783 32.1298 9.23438 32.478 9.88903 32.5711C11.1597 32.7524 13.0765 32.3963 15.6395 31.5033C16.2941 32.1472 16.5558 32.9317 16.4241 33.8568C16.32 34.5892 15.9928 35.2308 15.443 35.7819C14.8931 36.3326 14.244 36.6139 13.4963 36.6251C10.977 36.6592 9.38993 36.6293 8.73561 36.5362C7.4263 36.3497 6.28499 35.951 5.31103 35.3403C1.01958 32.6439 -0.671256 27.4084 0.238842 19.6332Z" fill="#44AF89"/>
<path d="M22.2783 18.1232L22.3153 18.0954C23.4124 17.2754 25.0057 16.3536 27.097 15.3301C29.7612 14.0256 31.5601 13.0038 32.4934 12.2639C32.9991 11.8357 33.3492 10.9011 33.5437 9.46058C33.7382 7.66963 33.9518 6.54058 34.1853 6.07309C35.002 4.67161 36.0326 3.9707 37.2774 3.9707C37.5496 3.9707 37.8217 4.00972 38.0942 4.08741C39.4556 4.67128 40.0192 5.43054 39.786 6.36519C38.0359 11.1542 37.1605 16.5077 37.1605 22.4257L37.1618 22.7558V22.7637L31.974 21.1462L31.9763 21.1281C32.1266 19.8699 32.202 18.8812 32.202 18.1626C30.3353 18.1626 28.6628 18.5907 27.1848 19.4473C27.118 19.485 27.0525 19.5234 26.9886 19.5624L26.9565 19.5817L22.2783 18.1232Z" fill="#44AF89"/>
<path d="M19.0169 24.2947C19.0169 22.1537 19.8533 20.304 21.5255 18.7468C21.742 18.5459 21.9932 18.3383 22.2784 18.1233L26.9566 19.5818C25.3316 20.5774 24.6491 21.876 24.9095 23.4768C25.104 24.6839 25.7164 25.7739 26.7474 26.7472C27.778 27.7206 28.9059 28.2074 30.131 28.2074C30.5882 28.2074 31.045 28.1294 31.5019 27.9737C31.5019 27.3508 31.5019 26.6886 31.5019 25.988C31.5019 25.1314 31.6185 23.8368 31.852 22.1045C31.8972 21.7694 31.9378 21.4498 31.9745 21.1459L37.1622 22.7634C37.1845 26.6814 37.5922 30.9487 38.3864 35.5659C38.3864 35.8384 38.1143 36.1403 37.5696 36.4711C37.025 36.8019 36.539 36.9674 36.111 36.9674C35.1776 37.0454 34.3802 36.4612 33.719 35.2155C33.0578 33.9694 32.5521 33.3075 32.2021 33.2298C31.852 33.2298 31.327 33.2688 30.6268 33.3465C29.9267 33.4242 29.4213 33.4635 29.1099 33.4635C27.6709 33.4635 26.4651 33.1324 25.4927 32.4705C23.2756 30.991 21.8366 29.9203 21.1754 29.2584C19.7364 27.8179 19.0166 26.163 19.0166 24.2941L19.0169 24.2947Z" fill="#A9DF91"/>
<path d="M74.0174 12.673C74.6007 12.673 75.6123 12.0793 77.0513 10.8919C78.4903 9.70449 79.1125 8.87705 78.918 8.40989C78.7628 7.98174 78.4222 7.60178 77.8972 7.271C77.3722 6.94021 76.8764 6.77466 76.4094 6.77466C76.1759 6.77466 75.9817 6.81367 75.8262 6.89136C75.4761 7.16379 75.0385 7.94272 74.5136 9.2275C73.9886 10.5123 73.726 11.4856 73.726 12.1475C73.726 12.498 73.8232 12.6733 74.0177 12.6733L74.0174 12.673Z" fill="#F9AB3C"/>
<path d="M70.7822 28.5482L70.7818 28.5875C70.7756 29.3507 70.8722 30.3919 71.0717 31.7114C71.3245 33.3857 71.4119 34.6121 71.3343 35.3907C71.1788 36.7145 70.2451 37.3764 68.5339 37.3764C67.6392 37.3764 67.0753 37.1426 66.8418 36.6755C66.1708 35.1019 65.652 33.3394 65.2855 31.3882L65.2754 31.3338L70.7822 28.5479V28.5482Z" fill="#A9DF91"/>
<path d="M77.3716 25.2146L77.3827 25.2241C79.6607 27.1364 82.3701 29.5518 85.5107 32.4712C85.7442 32.7826 85.8608 33.094 85.8608 33.4055C85.8608 34.0674 85.4914 34.6319 84.7522 35.0991C84.2076 35.7997 83.4688 36.1501 82.5351 36.1501C81.7573 36.1501 81.1738 35.897 80.785 35.3912C79.9571 34.5247 77.0546 32.0365 72.0773 27.9274L72.0511 27.9061L77.3713 25.2146H77.3716Z" fill="#A9DF91"/>
<path d="M65.033 14.3666C65.1106 13.3152 65.033 11.8164 64.7995 9.86972C64.5273 7.68963 64.3911 6.19046 64.3911 5.37284C64.3911 3.93235 64.6053 2.72527 65.0232 1.75194C65.4898 0.583869 66.6469 0 68.4946 0C68.9226 0 69.3212 0.058353 69.7099 0.175061C70.2057 0.681234 70.4585 1.10938 70.4585 1.45984C70.4585 3.01704 70.3515 5.87902 70.1474 10.0448C69.9627 13.5877 69.9139 16.43 69.9919 18.5714C70.1085 18.7271 70.5558 18.8051 71.3339 18.8051C72.4618 17.9485 73.5704 17.0919 74.6593 16.2352C75.9817 15.3399 77.1875 14.8921 78.2764 14.8921C79.1322 14.8921 79.9682 15.1452 80.785 15.6514C81.2907 15.9238 81.5435 16.2549 81.5435 16.644C81.5435 17.4226 81.0378 18.0652 80.0269 18.571C79.6768 18.8048 78.6655 19.3887 76.993 20.323C75.6706 21.0629 74.6593 21.7831 73.9594 22.484C74.9622 23.2368 76.0996 24.1468 77.3716 25.2142L72.0515 27.9057L71.5674 27.5064C71.3729 27.3507 71.198 27.2727 71.0425 27.2727C70.7703 27.2727 70.6924 27.5258 70.809 28.032C70.7936 28.1864 70.7844 28.3585 70.7821 28.548L65.2753 31.3339C64.8417 29.0027 64.6246 26.403 64.6246 23.5351C64.6246 21.5494 64.7609 18.493 65.033 14.3659V14.3666Z" fill="#44AF89"/>
<path d="M94.652 31.0496L94.6811 31.0817C94.8206 31.2309 94.9857 31.3794 95.1773 31.5279C95.9557 32.1304 96.6726 32.4786 97.3269 32.5717C98.5976 32.753 100.514 32.397 103.077 31.5039C103.732 32.1478 103.994 32.9323 103.862 33.8574C103.758 34.5898 103.431 35.2314 102.881 35.7821C102.331 36.3329 101.682 36.6142 100.934 36.6253C98.4148 36.6594 96.8278 36.6296 96.1735 36.5365C94.8642 36.35 93.7229 35.9513 92.7489 35.3406C91.6289 34.637 90.6867 33.7598 89.921 32.7104L89.887 32.6645L94.6513 31.0496H94.652Z" fill="#A9DF91"/>
<path d="M87.677 19.6335C88.0114 17.0069 89.0928 14.9291 90.9208 13.4004C92.7492 11.8718 94.8956 11.283 97.3596 11.6344C99.9783 12.0078 102.157 13.3309 103.896 15.6045C105.635 17.8776 106.296 20.3416 105.879 22.9958C105.379 24.0255 103.751 25.1109 100.996 26.2518C97.5696 27.6903 95.6587 28.5581 95.2627 28.8558C94.5642 29.0708 94.1902 29.3518 94.1407 29.6986C94.0762 30.1527 94.2465 30.6028 94.6513 31.0493L89.8869 32.6642C87.7445 29.6931 87.0073 25.3496 87.6764 19.6332L87.677 19.6335ZM93.5529 23.48C97.0017 23.8144 99.2539 22.8968 100.309 20.7268C100.507 20.4403 100.628 20.143 100.672 19.8345C100.787 19.0251 100.457 18.3094 99.6809 17.6875C98.9051 17.0656 97.9973 16.6804 96.9578 16.5322C96.1876 16.4224 95.5113 16.4834 94.928 16.7148C93.7291 17.1338 92.9981 18.2684 92.7348 20.1184C92.4443 22.1614 92.7168 23.2816 93.5529 23.4796V23.48Z" fill="#44AF89"/>
<path fill-rule="evenodd" clip-rule="evenodd" d="M41.951 5.44289C42.4325 5.91202 43.6923 6.21461 44.347 6.62112C44.6764 8.04653 44.122 8.76711 44.1623 9.2346C44.2848 10.662 43.843 10.9639 43.861 12.05L45.2325 12.0487C45.2852 11.1849 44.8159 10.3335 44.9135 9.47293C45.0616 8.16488 44.6633 9.69848 44.683 6.81126L46.7272 7.66199C46.7488 11.3504 46.3398 11.3291 47.8017 11.9635C52.4707 13.9888 50.7986 14.2881 55.2901 12.2526C57.4719 11.2639 56.8477 11.8438 56.9649 8.50747C55.7194 8.60942 52.8657 10.6492 51.8508 10.4777C51.9176 9.67848 52.5994 9.59456 54.0243 8.98348C55.2524 8.45665 61.4361 5.75367 61.7505 5.46518C61.0097 5.06293 52.1966 1.04863 51.9271 1.02961C51.3468 0.98896 43.3065 4.90787 41.951 5.44289Z" fill="#44AF89"/>
<path fill-rule="evenodd" clip-rule="evenodd" d="M46.8084 15.6532C46.6728 16.5305 46.9613 16.6666 47.6212 16.9567L50.8404 18.4031C51.4856 18.6811 51.9932 18.8024 51.725 19.738C50.8103 19.8328 47.7263 17.7441 46.8133 17.9015C46.6787 18.7932 46.9515 18.924 47.6294 19.2164L50.7543 20.6258C51.5043 20.9444 51.8684 20.9067 51.7895 21.9447C50.659 22.1171 47.8429 20.0262 46.8123 20.1668C46.6977 20.8586 46.752 21.05 47.3536 21.3601C47.8154 21.5985 48.2919 21.7814 48.7383 21.9804C52.0934 23.4756 51.3589 23.6386 54.1596 22.3345C54.9662 21.9591 56.3538 21.4582 56.8463 21.0389C56.9681 20.2822 56.9747 19.8278 56.8371 19.0791C56.6727 18.1847 56.9731 18.0782 56.941 17.1681C56.9056 16.1476 56.6803 16.4197 56.8679 15.4142C57.0304 14.5435 56.8869 14.2055 56.7667 13.4377C55.4031 13.4371 52.9053 15.3129 51.8167 15.2956C50.7219 15.2779 47.8865 13.2224 46.7435 13.4417C46.7543 14.5809 47.0736 14.4366 49.0055 15.3038C49.6949 15.6132 51.4512 16.2656 51.7397 16.7138C52.0279 17.1616 51.781 17.6589 51.1689 17.4225C50.3011 17.0875 47.5262 15.5287 46.8087 15.6536L46.8084 15.6532Z" fill="#A1D890"/>
<path fill-rule="evenodd" clip-rule="evenodd" d="M52.435 30.4061L52.3878 26.6367C52.3878 25.2919 52.7294 25.4804 53.8763 24.9739C54.5326 24.6844 55.4502 24.1022 56.2319 24.0911C56.2604 25.047 56.4874 28.5155 55.9857 28.9522C55.9843 28.9531 52.8656 30.4408 52.4347 30.4061H52.435ZM46.8136 22.8335C46.6237 23.8242 46.4936 29.0551 47.054 29.5249C47.425 29.836 51.4977 31.5791 51.9385 31.5633C52.2722 31.5515 56.4428 29.7583 56.7336 29.4364C57.1849 28.9371 56.9698 27.0511 56.9727 26.237C56.9757 25.3457 57.0739 23.6419 56.9177 22.8496C56.2136 22.7292 55.0588 23.4872 54.3999 23.7681C53.9169 23.974 52.2166 24.7933 51.816 24.7766C50.8028 24.7336 47.6975 22.6961 46.8139 22.8338L46.8136 22.8335Z" fill="#F9AB3C"/>
<path fill-rule="evenodd" clip-rule="evenodd" d="M56.8709 31.3109C55.6936 30.9811 53.0704 33.134 51.821 33.1065C50.6977 33.0815 48.0303 31.0821 46.8333 31.2706C46.6434 31.9971 47.4264 32.9773 47.7958 33.588L50.3686 37.943C51.728 40.2742 51.8047 40.5774 52.6568 39.0884L54.5972 35.8261C55.0449 35.0682 55.4457 34.364 55.8669 33.6359C56.2363 32.9963 57.0239 32.1249 56.8709 31.3106V31.3109Z" fill="#44AF89"/>
<path fill-rule="evenodd" clip-rule="evenodd" d="M52.435 30.4061C52.8657 30.4408 55.9847 28.9531 55.986 28.9522C56.4874 28.5155 56.2604 25.047 56.2323 24.0911C55.4506 24.1025 54.5326 24.6844 53.8766 24.9739C52.7298 25.4804 52.3882 25.2919 52.3882 26.6367L52.4353 30.4061H52.435Z" fill="#FEFEFE"/>
</svg>
